# xmcd
#
# Track frame offsets: 
#        150
#        56878
#        85580
#        124132
#        166108
#        180089
#        217418
#        242795
#
# Disc length: 3778 seconds
#
# Revision: 0
# Processed by: cddbd v1.5.2PL0 Copyright (c) Steve Scherf et al.
# Submitted via: ExactAudioCopy v1.0b1
#
DISCID=680ec008
DTITLE=Eric Clapton  - The Fifth Element - 1991-02-10 - London, Englan
DTITLE=d - Disc 2
DYEAR=1900
DGENRE=
TTITLE0=Old Love
TTITLE1=Badge
TTITLE2=Wonderful Tonight
TTITLE3=Cocaine
TTITLE4=Remark You Made
TTITLE5=Layla
TTITLE6=Crossroads
TTITLE7=Sunshine of Your Love
EXTD=
EXTT0=
EXTT1=
EXTT2=
EXTT3=
EXTT4=
EXTT5=
EXTT6=
EXTT7=
PLAYORDER=
